<?xml version="1.0" encoding="UTF-8"?>
<!DOCTYPE svg PUBLIC "-//W3C//DTD SVG 1.1//EN" "http://www.w3.org/Graphics/SVG/1.1/DTD/svg11.dtd">
<!-- Creator: CorelDRAW 2019 (64 Bit) -->
<svg xmlns="http://www.w3.org/2000/svg" xml:space="preserve" width="33px" height="33px" version="1.1" style="shape-rendering:geometricPrecision; text-rendering:geometricPrecision; image-rendering:optimizeQuality; fill-rule:evenodd; clip-rule:evenodd"
viewBox="0 0 33 33"
 xmlns:xlink="http://www.w3.org/1999/xlink">
 <defs>
  <style type="text/css">
   <![CDATA[
    .fil0 {fill:#282829;fill-rule:nonzero}
    .fil1 {fill:#C8C5C5;fill-rule:nonzero}
   ]]>
  </style>
 </defs>
 <g id="Camada_x0020_1">
  <metadata id="CorelCorpID_0Corel-Layer"/>
  <g id="_1873048923936">
   <path class="fil0" d="M15.87 25.79l4.41 0 0 -7.86 2.17 0 4.18 7.86 5.28 0 -5.08 -8.31c2.82,-0.5 4.32,-2.63 4.32,-5.38 0,-4.58 -3.45,-5.97 -7.55,-5.97l-7.73 0 0 19.66zm4.41 -16l2.87 0c1.61,0 3.42,0.31 3.42,2.28 0,2.14 -2.09,2.2 -3.7,2.2l-2.59 0 0 -4.48 0 0z"/>
   <path class="fil1" d="M16.11 25.79l-4.45 0 0 -7.86 -2.19 0 -4.21 7.86 -5.33 0 5.13 -8.31c-2.85,-0.5 -4.36,-2.63 -4.36,-5.38 0,-4.59 3.48,-5.98 7.6,-5.98l7.81 0 0 19.67 0 0zm-4.45 -16l-2.9 0c-1.62,0 -3.45,0.31 -3.45,2.28 0,2.14 2.11,2.19 3.74,2.19l2.61 0 0 -4.47 0 0z"/>
  </g>
 </g>
</svg>
