<?xml version="1.0" encoding="UTF-8"?>
<!DOCTYPE svg PUBLIC "-//W3C//DTD SVG 1.1//EN" "http://www.w3.org/Graphics/SVG/1.1/DTD/svg11.dtd">
<!-- Creator: CorelDRAW 2019 (64 Bit) -->
<svg xmlns="http://www.w3.org/2000/svg" xml:space="preserve" width="25px" height="25px" version="1.1" style="shape-rendering:geometricPrecision; text-rendering:geometricPrecision; image-rendering:optimizeQuality; fill-rule:evenodd; clip-rule:evenodd"
viewBox="0 0 25 25"
 xmlns:xlink="http://www.w3.org/1999/xlink">
 <defs>
  <style type="text/css">
   <![CDATA[
    .fil0 {fill:url(#id0)}
    .fil2 {fill:url(#id1)}
    .fil1 {fill:url(#id2)}
    .fil3 {fill:url(#id3)}
   ]]>
  </style>
  <linearGradient id="id0" gradientUnits="userSpaceOnUse" x1="10.94" y1="0.52" x2="10.94" y2="24.92">
   <stop offset="0" style="stop-opacity:1; stop-color:#00008C"/>
   <stop offset="1" style="stop-opacity:1; stop-color:blue"/>
  </linearGradient>
  <linearGradient id="id1" gradientUnits="userSpaceOnUse" xlink:href="#id0" x1="16.43" y1="10.83" x2="16.43" y2="13.54">
  </linearGradient>
  <linearGradient id="id2" gradientUnits="userSpaceOnUse" xlink:href="#id0" x1="16.43" y1="7.89" x2="16.43" y2="10.61">
  </linearGradient>
  <linearGradient id="id3" gradientUnits="userSpaceOnUse" xlink:href="#id0" x1="16.43" y1="15.12" x2="16.43" y2="17.84">
  </linearGradient>
 </defs>
 <g id="Camada_x0020_1">
  <metadata id="CorelCorpID_0Corel-Layer"/>
  <g id="_1873056734592">
   <path class="fil0" d="M18.03 1.23c-2.12,0 -4.42,0.58 -6,2.17 -1.58,-1.59 -3.87,-2.17 -6,-2.17 -1.58,0 -3.26,0.32 -4.67,1.14 -0.8,0.48 -1.33,1.5 -1.33,2.67l0 16.27c0,1.87 1.33,3.25 2.7,2.79 1.07,-0.36 2.21,-0.52 3.3,-0.52 1.7,0 3.51,0.38 4.98,1.33 0.65,0.43 1.39,0.43 2.04,0 1.46,-0.97 3.27,-1.33 4.97,-1.33 1.1,0 2.23,0.16 3.3,0.52 1.38,0.48 2.71,-0.91 2.71,-2.79l0 -16.27c0,-1.17 -0.54,-2.19 -1.33,-2.67 -1.4,-0.82 -3.08,-1.14 -4.67,-1.14zm3.83 18.36c0,0.91 -0.64,1.57 -1.31,1.41 -0.82,-0.2 -1.68,-0.29 -2.52,-0.29 -1.85,0 -4.52,0.94 -6,2.17l0 -16.6c1.48,-1.22 4.15,-2.16 6,-2.16 1.01,0 2,0.13 2.95,0.4 0.5,0.15 0.88,0.74 0.88,1.42l0 13.65z"/>
   <path class="fil1" d="M14.19 10.62c-0.35,0 -0.66,-0.29 -0.77,-0.75 -0.14,-0.56 0.1,-1.18 0.52,-1.35 1.68,-0.73 3.86,-0.96 5.85,-0.65 0.45,0.07 0.78,0.6 0.72,1.19 -0.05,0.59 -0.46,1.03 -0.9,0.95 -1.77,-0.27 -3.7,-0.05 -5.17,0.57 -0.08,0.01 -0.17,0.04 -0.25,0.04z"/>
   <path class="fil2" d="M14.19 14.46c-0.35,0 -0.66,-0.29 -0.77,-0.75 -0.14,-0.57 0.1,-1.19 0.52,-1.36 1.67,-0.72 3.86,-0.95 5.85,-0.65 0.45,0.07 0.78,0.61 0.72,1.2 -0.05,0.59 -0.46,1.02 -0.9,0.95 -1.77,-0.27 -3.7,-0.06 -5.17,0.56 -0.08,0.03 -0.17,0.05 -0.25,0.05z"/>
   <path class="fil3" d="M14.19 18.29c-0.35,0 -0.66,-0.29 -0.77,-0.75 -0.14,-0.56 0.1,-1.18 0.52,-1.35 1.67,-0.72 3.86,-0.96 5.85,-0.65 0.45,0.07 0.78,0.6 0.72,1.19 -0.05,0.6 -0.46,1.01 -0.9,0.96 -1.77,-0.28 -3.7,-0.06 -5.17,0.56 -0.08,0.03 -0.17,0.04 -0.25,0.04z"/>
  </g>
 </g>
</svg>
