<?xml version="1.0" encoding="UTF-8"?>
<!DOCTYPE svg PUBLIC "-//W3C//DTD SVG 1.1//EN" "http://www.w3.org/Graphics/SVG/1.1/DTD/svg11.dtd">
<!-- Creator: CorelDRAW 2019 (64 Bit) -->
<svg xmlns="http://www.w3.org/2000/svg" xml:space="preserve" width="25px" height="25px" version="1.1" style="shape-rendering:geometricPrecision; text-rendering:geometricPrecision; image-rendering:optimizeQuality; fill-rule:evenodd; clip-rule:evenodd"
viewBox="0 0 25 25"
 xmlns:xlink="http://www.w3.org/1999/xlink">
 <defs>
  <style type="text/css">
   <![CDATA[
    .fil0 {fill:url(#id0)}
   ]]>
  </style>
  <linearGradient id="id0" gradientUnits="userSpaceOnUse" x1="11" y1="0.69" x2="11" y2="24.69">
   <stop offset="0" style="stop-opacity:1; stop-color:#00008C"/>
   <stop offset="1" style="stop-opacity:1; stop-color:blue"/>
  </linearGradient>
 </defs>
 <g id="Camada_x0020_1">
  <metadata id="CorelCorpID_0Corel-Layer"/>
  <path class="fil0" d="M12.93 17.09c0.15,-0.43 0.05,-0.92 -0.26,-1.26l-2.32 -2.47 0.03 -0.04c1.93,-2.32 3.31,-5 4.12,-7.83l2.16 0c0.6,0 1.1,-0.54 1.1,-1.19l0 -0.02c0,-0.65 -0.5,-1.19 -1.1,-1.19l-6.68 0 0 -1.2c0,-0.66 -0.5,-1.2 -1.11,-1.2 -0.61,0 -1.11,0.54 -1.11,1.2l0 1.2 -6.69 0c-0.6,0 -1.1,0.54 -1.1,1.19 0,0.66 0.5,1.18 1.1,1.18l11.32 0c-0.74,2.33 -1.92,4.53 -3.52,6.45 -0.9,-1.07 -1.66,-2.23 -2.29,-3.46 -0.18,-0.35 -0.5,-0.56 -0.87,-0.56 -0.77,0 -1.26,0.9 -0.88,1.62 0.7,1.35 1.56,2.65 2.56,3.85l-4.86 5.17c-0.44,0.47 -0.44,1.24 0,1.71 0.43,0.46 1.14,0.46 1.58,0l4.76 -5.15 2.24 2.42c0.57,0.61 1.54,0.39 1.82,-0.42l0 0zm5.39 -6.8c-0.67,0 -1.27,0.44 -1.5,1.13l-4.08 11.76c-0.27,0.73 0.24,1.51 0.96,1.51 0.44,0 0.83,-0.29 0.98,-0.73l0.99 -2.87 5.28 0 1 2.87c0.16,0.43 0.55,0.73 0.98,0.73 0.72,0 1.23,-0.78 0.98,-1.51l-4.08 -11.76c-0.25,-0.69 -0.85,-1.13 -1.51,-1.13l0 0zm-1.8 8.4l1.8 -5.2 1.8 5.2 -3.6 0 0 0z"/>
 </g>
</svg>
