<?xml version="1.0" encoding="UTF-8"?>
<!DOCTYPE svg PUBLIC "-//W3C//DTD SVG 1.1//EN" "http://www.w3.org/Graphics/SVG/1.1/DTD/svg11.dtd">
<!-- Creator: CorelDRAW 2019 (64 Bit) -->
<svg xmlns="http://www.w3.org/2000/svg" xml:space="preserve" width="126px" height="35px" version="1.1" style="shape-rendering:geometricPrecision; text-rendering:geometricPrecision; image-rendering:optimizeQuality; fill-rule:evenodd; clip-rule:evenodd"
viewBox="0 0 126 35"
 xmlns:xlink="http://www.w3.org/1999/xlink">
 <defs>
  <style type="text/css">
   <![CDATA[
    .fil2 {fill:#373435;fill-rule:nonzero}
    .fil1 {fill:#C8C5C5;fill-rule:nonzero}
    .fil0 {fill:#282829;fill-rule:nonzero}
   ]]>
  </style>
 </defs>
 <g id="Camada_x0020_1">
  <metadata id="CorelCorpID_0Corel-Layer"/>
  <path class="fil0" d="M29.59 33.12l6.76 0 0 -12.07 3.34 0 6.41 12.07 8.11 0 -7.8 -12.75c4.33,-0.77 6.63,-4.05 6.63,-8.27 0,-7.03 -5.29,-9.16 -11.58,-9.16l-11.87 0 0 30.18zm6.76 -24.56l4.42 0c2.47,0 5.25,0.47 5.25,3.5 0,3.28 -3.21,3.37 -5.68,3.37l-3.99 0 0 -6.87z"/>
  <path class="fil1" d="M29.95 33.12l-6.82 0 0 -12.07 -3.37 0 -6.46 12.07 -8.18 0 7.87 -12.75c-4.37,-0.77 -6.69,-4.05 -6.69,-8.27 0,-7.04 5.34,-9.17 11.67,-9.17l11.98 0 0 30.19zm-6.82 -24.56l-4.46 0c-2.49,0 -5.29,0.47 -5.29,3.5 0,3.28 3.24,3.36 5.73,3.36l4.02 0 0 -6.86z"/>
  <path class="fil2" d="M63.05 12.86c0,0.73 -0.2,1.34 -0.61,1.85 -0.4,0.5 -1.03,0.87 -1.89,1.11l0 0.03 3.17 4.27 -2.33 0 -2.87 -4.02 -1.33 0 0 4.02 -1.94 0 0 -10.37 3.21 0c0.53,0 1.02,0.03 1.48,0.09 0.46,0.06 0.85,0.15 1.18,0.27 0.62,0.23 1.09,0.57 1.43,1.03 0.34,0.46 0.5,1.03 0.5,1.72zm-4.91 1.65c0.44,0 0.82,-0.01 1.12,-0.05 0.31,-0.04 0.57,-0.1 0.78,-0.18 0.38,-0.14 0.65,-0.34 0.8,-0.59 0.15,-0.25 0.23,-0.54 0.23,-0.87 0,-0.27 -0.06,-0.52 -0.18,-0.74 -0.12,-0.21 -0.32,-0.38 -0.6,-0.5 -0.18,-0.09 -0.41,-0.14 -0.69,-0.18 -0.28,-0.04 -0.62,-0.06 -1.03,-0.06l-1.38 0 0 3.17 0.95 0z"/>
  <path id="1" class="fil2" d="M71.45 17.48l-4 0 -1.02 2.64 -2.06 0 4.19 -10.37 1.76 0 4.19 10.37 -2.04 0 -1.02 -2.64zm-2.02 -5.24c-0.37,1.08 -0.71,1.99 -1,2.72l-0.36 0.94 2.75 0 -0.35 -0.94c-0.29,-0.73 -0.63,-1.64 -1,-2.72l-0.04 0z"/>
  <path id="2" class="fil2" d="M81.44 17.34c0.23,-0.82 0.51,-1.69 0.85,-2.63l1.83 -4.96 2.71 0 0 10.37 -1.94 0 0 -5.25c0,-0.77 0.03,-1.67 0.1,-2.69l-0.07 0c-0.09,0.3 -0.2,0.63 -0.32,0.99 -0.12,0.37 -0.25,0.74 -0.38,1.09l-2.18 5.86 -1.24 0 -2.18 -5.86c-0.13,-0.35 -0.26,-0.72 -0.38,-1.09 -0.12,-0.36 -0.23,-0.69 -0.32,-0.99l-0.07 0c0.07,0.96 0.1,1.85 0.1,2.68l0 5.26 -1.94 0 0 -10.37 2.7 0 1.82 4.94c0.3,0.82 0.59,1.7 0.86,2.65l0.05 0z"/>
  <polygon id="3" class="fil2" points="89.35,20.12 89.35,9.75 91.29,9.75 91.29,20.12 "/>
  <path id="4" class="fil2" d="M101.61 12.86c0,0.73 -0.21,1.34 -0.61,1.85 -0.41,0.5 -1.04,0.87 -1.89,1.11l0 0.03 3.16 4.27 -2.32 0 -2.88 -4.02 -1.32 0 0 4.02 -1.94 0 0 -10.37 3.2 0c0.54,0 1.03,0.03 1.49,0.09 0.45,0.06 0.84,0.15 1.17,0.27 0.62,0.23 1.1,0.57 1.44,1.03 0.33,0.46 0.5,1.03 0.5,1.72zm-4.91 1.65c0.44,0 0.81,-0.01 1.12,-0.05 0.3,-0.04 0.56,-0.1 0.77,-0.18 0.39,-0.14 0.66,-0.34 0.81,-0.59 0.15,-0.25 0.22,-0.54 0.22,-0.87 0,-0.27 -0.06,-0.52 -0.18,-0.74 -0.11,-0.21 -0.31,-0.38 -0.6,-0.5 -0.18,-0.09 -0.41,-0.14 -0.69,-0.18 -0.27,-0.04 -0.62,-0.06 -1.03,-0.06l-1.37 0 0 3.17 0.95 0z"/>
  <polygon id="5" class="fil2" points="105.89,18.53 111.08,18.53 111.08,20.12 103.95,20.12 103.95,9.75 110.79,9.75 110.79,11.34 105.89,11.34 105.89,14.02 110.1,14.02 110.1,15.61 105.89,15.61 "/>
  <path id="6" class="fil2" d="M118.3 17.14c0,-0.26 -0.06,-0.48 -0.19,-0.64 -0.13,-0.16 -0.31,-0.3 -0.54,-0.4 -0.22,-0.11 -0.48,-0.19 -0.76,-0.25 -0.28,-0.07 -0.57,-0.13 -0.88,-0.19 -0.41,-0.09 -0.8,-0.2 -1.17,-0.32 -0.37,-0.12 -0.7,-0.29 -0.98,-0.5 -0.29,-0.22 -0.51,-0.49 -0.68,-0.82 -0.17,-0.33 -0.25,-0.75 -0.25,-1.24 0,-0.55 0.09,-1.03 0.29,-1.44 0.19,-0.4 0.46,-0.74 0.79,-1 0.34,-0.27 0.73,-0.47 1.18,-0.6 0.45,-0.13 0.96,-0.2 1.52,-0.2 0.56,0 1.13,0.06 1.7,0.16 0.56,0.11 1.05,0.25 1.46,0.42l0 1.63c-0.54,-0.21 -1.07,-0.37 -1.57,-0.46 -0.5,-0.1 -0.98,-0.14 -1.42,-0.14 -0.63,0 -1.12,0.11 -1.47,0.34 -0.34,0.23 -0.51,0.57 -0.51,1.02 0,0.27 0.05,0.48 0.17,0.66 0.11,0.17 0.26,0.31 0.45,0.42 0.2,0.11 0.42,0.2 0.68,0.27 0.24,0.06 0.51,0.12 0.79,0.18 0.45,0.1 0.88,0.2 1.28,0.33 0.41,0.12 0.77,0.28 1.08,0.5 0.31,0.22 0.56,0.5 0.75,0.85 0.18,0.35 0.27,0.8 0.27,1.34 0,0.56 -0.1,1.04 -0.31,1.45 -0.21,0.41 -0.51,0.75 -0.9,1.02 -0.38,0.26 -0.85,0.46 -1.4,0.59 -0.56,0.13 -1.16,0.19 -1.82,0.19 -0.57,0 -1.14,-0.05 -1.69,-0.16 -0.56,-0.12 -1.02,-0.27 -1.39,-0.47l0 -1.61c0.53,0.22 1.03,0.39 1.53,0.49 0.49,0.1 1,0.15 1.53,0.15 0.3,0 0.6,-0.03 0.9,-0.08 0.29,-0.04 0.55,-0.13 0.79,-0.25 0.23,-0.12 0.42,-0.28 0.56,-0.48 0.15,-0.21 0.21,-0.46 0.21,-0.76z"/>
  <polygon class="fil2" points="55.32,27.08 56.18,23.02 58.5,23.02 58.4,23.46 56.58,23.46 56.31,24.78 57.92,24.78 57.83,25.22 56.21,25.22 55.82,27.08 "/>
  <path id="1" class="fil2" d="M59.2 25.4l-0.36 1.68 -0.5 0 0.86 -4.06 1.08 0c0.12,0 0.23,0 0.34,0.01 0.11,0.01 0.21,0.03 0.29,0.05 0.27,0.07 0.47,0.19 0.6,0.35 0.13,0.17 0.2,0.36 0.2,0.58 0,0.17 -0.03,0.32 -0.08,0.46 -0.05,0.14 -0.13,0.27 -0.24,0.38 -0.1,0.12 -0.24,0.22 -0.41,0.3 -0.16,0.08 -0.36,0.14 -0.6,0.18l0 0.02 0.95 1.73 -0.56 0 -0.9 -1.68 -0.67 0zm0.09 -0.45l0.47 0c0.15,0 0.28,0 0.39,-0.02 0.1,-0.01 0.2,-0.02 0.29,-0.05 0.15,-0.04 0.27,-0.09 0.36,-0.15 0.1,-0.06 0.17,-0.13 0.23,-0.21 0.06,-0.07 0.1,-0.15 0.12,-0.23 0.02,-0.09 0.03,-0.17 0.03,-0.25 0,-0.12 -0.03,-0.23 -0.1,-0.32 -0.07,-0.09 -0.19,-0.16 -0.34,-0.21 -0.1,-0.03 -0.24,-0.05 -0.43,-0.05l-0.7 0 -0.32 1.49z"/>
  <path id="2" class="fil2" d="M63.77 27.15c-0.23,0 -0.45,-0.03 -0.64,-0.09 -0.19,-0.07 -0.36,-0.16 -0.49,-0.29 -0.14,-0.12 -0.24,-0.28 -0.31,-0.47 -0.08,-0.18 -0.11,-0.4 -0.11,-0.64 0,-0.21 0.02,-0.41 0.06,-0.63 0.04,-0.21 0.1,-0.42 0.18,-0.62 0.09,-0.2 0.19,-0.39 0.31,-0.57 0.13,-0.18 0.27,-0.34 0.44,-0.47 0.16,-0.13 0.35,-0.24 0.56,-0.32 0.21,-0.08 0.44,-0.11 0.69,-0.11 0.23,0 0.44,0.03 0.64,0.09 0.19,0.06 0.35,0.16 0.48,0.28 0.14,0.13 0.24,0.29 0.32,0.47 0.07,0.19 0.1,0.4 0.1,0.65 0,0.2 -0.02,0.41 -0.06,0.62 -0.04,0.22 -0.1,0.43 -0.18,0.63 -0.08,0.2 -0.19,0.39 -0.31,0.57 -0.12,0.18 -0.27,0.33 -0.44,0.47 -0.16,0.13 -0.35,0.24 -0.55,0.31 -0.21,0.08 -0.44,0.12 -0.69,0.12zm0 -0.44c0.19,0 0.36,-0.03 0.52,-0.1 0.15,-0.06 0.3,-0.15 0.42,-0.27 0.13,-0.11 0.24,-0.24 0.34,-0.39 0.09,-0.15 0.17,-0.3 0.24,-0.47 0.06,-0.16 0.11,-0.34 0.14,-0.51 0.03,-0.17 0.05,-0.34 0.05,-0.5 0,-0.36 -0.09,-0.63 -0.26,-0.82 -0.17,-0.18 -0.43,-0.27 -0.77,-0.27 -0.19,0 -0.36,0.03 -0.52,0.09 -0.15,0.07 -0.3,0.16 -0.42,0.27 -0.13,0.11 -0.24,0.25 -0.33,0.39 -0.1,0.15 -0.18,0.31 -0.24,0.48 -0.07,0.16 -0.12,0.33 -0.15,0.51 -0.03,0.17 -0.05,0.34 -0.05,0.5 0,0.36 0.09,0.63 0.26,0.81 0.17,0.19 0.43,0.28 0.77,0.28z"/>
  <path id="3" class="fil2" d="M69.3 26.34c0.02,-0.07 0.03,-0.16 0.04,-0.24 0.01,-0.09 0.03,-0.17 0.04,-0.26 0.01,-0.09 0.03,-0.18 0.05,-0.27 0.01,-0.08 0.03,-0.17 0.05,-0.24l0.49 -2.31 0.5 0 -0.86 4.06 -0.47 0 -1.12 -2.37c-0.07,-0.15 -0.14,-0.31 -0.22,-0.48 -0.07,-0.16 -0.14,-0.33 -0.2,-0.49l-0.01 0c-0.02,0.17 -0.05,0.34 -0.08,0.52 -0.03,0.18 -0.06,0.35 -0.1,0.51l-0.48 2.31 -0.51 0 0.86 -4.06 0.46 0 1.2 2.54c0.06,0.12 0.12,0.25 0.19,0.39 0.06,0.13 0.11,0.26 0.16,0.39l0.01 0z"/>
  <polygon id="4" class="fil2" points="72.01,27.08 71.51,27.08 72.27,23.46 70.99,23.46 71.08,23.02 74.15,23.02 74.05,23.46 72.77,23.46 "/>
  <polygon id="5" class="fil2" points="75.82,26.63 77.79,26.63 77.7,27.08 75.22,27.08 76.08,23.02 78.44,23.02 78.35,23.46 76.49,23.46 76.21,24.78 77.87,24.78 77.78,25.22 76.12,25.22 "/>
  <path id="6" class="fil2" d="M81.42 26.34c0.01,-0.07 0.02,-0.16 0.03,-0.24 0.02,-0.09 0.03,-0.17 0.04,-0.26 0.02,-0.09 0.03,-0.18 0.05,-0.27 0.02,-0.08 0.03,-0.17 0.05,-0.24l0.49 -2.31 0.5 0 -0.85 4.06 -0.47 0 -1.12 -2.37c-0.08,-0.15 -0.15,-0.31 -0.23,-0.48 -0.07,-0.16 -0.14,-0.33 -0.2,-0.49l-0.01 0c-0.02,0.17 -0.05,0.34 -0.08,0.52 -0.03,0.18 -0.06,0.35 -0.09,0.51l-0.49 2.31 -0.5 0 0.86 -4.06 0.46 0 1.2 2.54c0.06,0.12 0.12,0.25 0.18,0.39 0.06,0.13 0.12,0.26 0.16,0.39l0.02 0z"/>
  <path id="7" class="fil2" d="M85.97 24.52c0,-0.14 -0.02,-0.27 -0.05,-0.38 -0.04,-0.11 -0.09,-0.2 -0.15,-0.29 -0.06,-0.08 -0.14,-0.14 -0.22,-0.2 -0.09,-0.05 -0.19,-0.09 -0.29,-0.12 -0.07,-0.02 -0.15,-0.04 -0.24,-0.05 -0.09,-0.01 -0.2,-0.02 -0.33,-0.02l-0.62 0 -0.67 3.17 0.41 0c0.16,0 0.3,-0.01 0.43,-0.02 0.12,-0.02 0.24,-0.04 0.34,-0.06 0.18,-0.05 0.35,-0.12 0.49,-0.21 0.15,-0.09 0.27,-0.19 0.37,-0.3 0.11,-0.12 0.19,-0.24 0.26,-0.37 0.07,-0.14 0.12,-0.27 0.16,-0.4 0.04,-0.14 0.07,-0.27 0.09,-0.39 0.01,-0.13 0.02,-0.25 0.02,-0.36zm0.53 0.05c0,0.15 -0.02,0.31 -0.04,0.47 -0.03,0.17 -0.07,0.33 -0.13,0.49 -0.06,0.16 -0.14,0.32 -0.24,0.47 -0.09,0.15 -0.21,0.3 -0.35,0.42 -0.13,0.13 -0.29,0.25 -0.47,0.35 -0.18,0.09 -0.39,0.17 -0.62,0.23 -0.12,0.02 -0.25,0.04 -0.39,0.06 -0.13,0.01 -0.29,0.02 -0.48,0.02l-0.98 0 0.86 -4.06 1.04 0c0.14,0 0.27,0 0.38,0.01 0.11,0.02 0.21,0.03 0.3,0.06 0.2,0.05 0.36,0.12 0.5,0.21 0.15,0.09 0.26,0.21 0.35,0.33 0.09,0.13 0.16,0.27 0.2,0.44 0.04,0.15 0.07,0.32 0.07,0.5z"/>
  <path id="8" class="fil2" d="M91.35 24.52c0,-0.14 -0.02,-0.27 -0.05,-0.38 -0.04,-0.11 -0.09,-0.2 -0.15,-0.29 -0.06,-0.08 -0.14,-0.14 -0.23,-0.2 -0.08,-0.05 -0.18,-0.09 -0.28,-0.12 -0.07,-0.02 -0.16,-0.04 -0.24,-0.05 -0.09,-0.01 -0.2,-0.02 -0.33,-0.02l-0.62 0 -0.68 3.17 0.42 0c0.16,0 0.3,-0.01 0.43,-0.02 0.12,-0.02 0.23,-0.04 0.33,-0.06 0.19,-0.05 0.36,-0.12 0.5,-0.21 0.15,-0.09 0.27,-0.19 0.37,-0.3 0.1,-0.12 0.19,-0.24 0.26,-0.37 0.07,-0.14 0.12,-0.27 0.16,-0.4 0.04,-0.14 0.07,-0.27 0.09,-0.39 0.01,-0.13 0.02,-0.25 0.02,-0.36zm0.52 0.05c0,0.15 -0.01,0.31 -0.03,0.47 -0.03,0.17 -0.07,0.33 -0.14,0.49 -0.05,0.16 -0.13,0.32 -0.23,0.47 -0.09,0.15 -0.21,0.3 -0.35,0.42 -0.13,0.13 -0.29,0.25 -0.47,0.35 -0.18,0.09 -0.39,0.17 -0.62,0.23 -0.12,0.02 -0.25,0.04 -0.39,0.06 -0.13,0.01 -0.3,0.02 -0.48,0.02l-0.98 0 0.86 -4.06 1.04 0c0.14,0 0.27,0 0.38,0.01 0.11,0.02 0.21,0.03 0.3,0.06 0.2,0.05 0.36,0.12 0.5,0.21 0.15,0.09 0.26,0.21 0.35,0.33 0.09,0.13 0.16,0.27 0.2,0.44 0.04,0.15 0.06,0.32 0.06,0.5z"/>
  <polygon id="9" class="fil2" points="92.89,26.63 94.86,26.63 94.77,27.08 92.29,27.08 93.15,23.02 95.51,23.02 95.42,23.46 93.56,23.46 93.28,24.78 94.94,24.78 94.85,25.22 93.19,25.22 "/>
  <path id="10" class="fil2" d="M98.9 23.02l0.56 0 -2.26 4.06 -0.43 0 -0.75 -4.06 0.5 0 0.4 2.26c0.08,0.45 0.14,0.82 0.17,1.12l0.02 0c0.12,-0.28 0.29,-0.64 0.53,-1.07l1.26 -2.31z"/>
  <polygon id="11" class="fil2" points="99.82,26.63 101.79,26.63 101.7,27.08 99.23,27.08 100.08,23.02 102.44,23.02 102.35,23.46 100.49,23.46 100.21,24.78 101.87,24.78 101.78,25.22 100.12,25.22 "/>
  <polygon id="12" class="fil2" points="103.13,26.63 105.11,26.63 105.01,27.08 102.54,27.08 103.4,23.02 103.9,23.02 "/>
  <path id="13" class="fil2" d="M107.28 27.15c-0.24,0 -0.45,-0.03 -0.64,-0.09 -0.19,-0.07 -0.36,-0.16 -0.49,-0.29 -0.14,-0.12 -0.24,-0.28 -0.32,-0.47 -0.07,-0.18 -0.11,-0.4 -0.11,-0.64 0,-0.21 0.02,-0.41 0.07,-0.63 0.04,-0.21 0.1,-0.42 0.18,-0.62 0.08,-0.2 0.19,-0.39 0.31,-0.57 0.12,-0.18 0.27,-0.34 0.44,-0.47 0.16,-0.13 0.35,-0.24 0.56,-0.32 0.2,-0.08 0.43,-0.11 0.68,-0.11 0.24,0 0.45,0.03 0.64,0.09 0.19,0.06 0.36,0.16 0.49,0.28 0.14,0.13 0.24,0.29 0.31,0.47 0.08,0.19 0.11,0.4 0.11,0.65 0,0.2 -0.02,0.41 -0.06,0.62 -0.04,0.22 -0.1,0.43 -0.18,0.63 -0.09,0.2 -0.19,0.39 -0.31,0.57 -0.13,0.18 -0.27,0.33 -0.44,0.47 -0.16,0.13 -0.35,0.24 -0.56,0.31 -0.2,0.08 -0.43,0.12 -0.68,0.12zm0 -0.44c0.19,0 0.36,-0.03 0.52,-0.1 0.15,-0.06 0.29,-0.15 0.42,-0.27 0.13,-0.11 0.24,-0.24 0.33,-0.39 0.1,-0.15 0.18,-0.3 0.24,-0.47 0.07,-0.16 0.12,-0.34 0.15,-0.51 0.03,-0.17 0.05,-0.34 0.05,-0.5 0,-0.36 -0.09,-0.63 -0.26,-0.82 -0.17,-0.18 -0.43,-0.27 -0.77,-0.27 -0.19,0 -0.36,0.03 -0.52,0.09 -0.15,0.07 -0.3,0.16 -0.42,0.27 -0.13,0.11 -0.24,0.25 -0.34,0.39 -0.09,0.15 -0.17,0.31 -0.24,0.48 -0.06,0.16 -0.11,0.33 -0.14,0.51 -0.03,0.17 -0.05,0.34 -0.05,0.5 0,0.36 0.09,0.63 0.26,0.81 0.17,0.19 0.43,0.28 0.77,0.28z"/>
  <path id="14" class="fil2" d="M111.28 25.42c-0.17,0 -0.34,-0.01 -0.49,-0.03l-0.36 1.69 -0.5 0 0.86 -4.06 1.01 0c0.14,0 0.26,0 0.35,0.01 0.1,0.01 0.18,0.02 0.26,0.04 0.14,0.03 0.26,0.08 0.36,0.14 0.1,0.06 0.19,0.12 0.25,0.2 0.07,0.08 0.12,0.17 0.15,0.27 0.04,0.09 0.05,0.19 0.05,0.3 0,0.18 -0.03,0.36 -0.1,0.53 -0.07,0.17 -0.19,0.33 -0.34,0.46 -0.16,0.14 -0.36,0.25 -0.61,0.33 -0.25,0.08 -0.54,0.12 -0.89,0.12zm-0.4 -0.47c0.14,0.02 0.29,0.03 0.43,0.03 0.19,0 0.35,-0.01 0.5,-0.04 0.14,-0.03 0.26,-0.07 0.37,-0.13 0.1,-0.05 0.18,-0.1 0.25,-0.17 0.07,-0.07 0.12,-0.14 0.16,-0.21 0.04,-0.07 0.07,-0.14 0.08,-0.22 0.02,-0.07 0.03,-0.14 0.03,-0.2 0,-0.13 -0.04,-0.23 -0.1,-0.32 -0.07,-0.08 -0.18,-0.14 -0.32,-0.18 -0.05,-0.02 -0.11,-0.03 -0.17,-0.04 -0.07,0 -0.16,-0.01 -0.26,-0.01l-0.65 0 -0.32 1.49z"/>
  <polygon id="15" class="fil2" points="114.13,26.63 116.1,26.63 116.01,27.08 113.53,27.08 114.39,23.02 116.75,23.02 116.66,23.46 114.8,23.46 114.52,24.78 116.18,24.78 116.09,25.22 114.43,25.22 "/>
  <path id="16" class="fil2" d="M117.7 25.4l-0.35 1.68 -0.51 0 0.86 -4.06 1.08 0c0.12,0 0.24,0 0.35,0.01 0.1,0.01 0.2,0.03 0.28,0.05 0.27,0.07 0.47,0.19 0.6,0.35 0.13,0.17 0.2,0.36 0.2,0.58 0,0.17 -0.03,0.32 -0.08,0.46 -0.05,0.14 -0.13,0.27 -0.23,0.38 -0.11,0.12 -0.25,0.22 -0.41,0.3 -0.17,0.08 -0.37,0.14 -0.61,0.18l0 0.02 0.95 1.73 -0.56 0 -0.9 -1.68 -0.67 0zm0.1 -0.45l0.46 0c0.15,0 0.28,0 0.39,-0.02 0.11,-0.01 0.2,-0.02 0.29,-0.05 0.15,-0.04 0.27,-0.09 0.37,-0.15 0.09,-0.06 0.17,-0.13 0.23,-0.21 0.05,-0.07 0.09,-0.15 0.11,-0.23 0.03,-0.09 0.03,-0.17 0.03,-0.25 0,-0.12 -0.03,-0.23 -0.1,-0.32 -0.07,-0.09 -0.18,-0.16 -0.33,-0.21 -0.11,-0.03 -0.25,-0.05 -0.44,-0.05l-0.7 0 -0.31 1.49z"/>
 </g>
</svg>
